

Footloose[2011]DvDrip[Eng]-nenad023


General
Complete name                            : Footloose[2011]DvDrip[Eng]-nenad023.avi
Format                                   : AVI
Format/Info                              : Audio Video Interleave
File size                                : 700 MiB
Duration                                 : 1h 53mn
Overall bit rate                         : 863 Kbps
Writing application                      : VirtualDubMod 1.5.4.1 (build 2178/release)
Writing library                          : VirtualDubMod build 2178/release

Video
ID                                       : 0
Format                                   : MPEG-4 Visual
Format profile                           : Advanced Simple@L5
Format settings, BVOP                    : 1
Format settings, QPel                    : No
Format settings, GMC                     : No warppoints
Format settings, Matrix                  : Custom
Codec ID                                 : XVID
Codec ID/Hint                            : XviD
Duration                                 : 1h 53mn
Bit rate                                 : 728 Kbps
Width                                    : 608 pixels
Height                                   : 256 pixels
Display aspect ratio                     : 2.40:1
Frame rate                               : 23.976 fps
Color space                              : YUV
Chroma subsampling                       : 4:2:0
Bit depth                                : 8 bits
Scan type                                : Progressive
Compression mode                         : Lossy
Bits/(Pixel*Frame)                       : 0.195
Stream size                              : 591 MiB (84%)
Writing library                          : XviD 64

Audio
ID                                       : 1
Format                                   : MPEG Audio
Format version                           : Version 1
Format profile                           : Layer 3
Mode                                     : Joint stereo
Mode extension                           : MS Stereo
Codec ID                                 : 55
Codec ID/Hint                            : MP3
Duration                                 : 1h 53mn
Bit rate mode                            : Constant
Bit rate                                 : 128 Kbps
Channel(s)                               : 2 channels
Sampling rate                            : 48.0 KHz
Compression mode                         : Lossy
Stream size                              : 104 MiB (15%)
Alignment                                : Aligned on interleaves
Interleave, duration                     : 83 ms (2.00 video frames)
Interleave, preload duration             : 504 ms
Writing library                          : LAME3.98r
Encoding settings                        : -m j -V 4 -q 2 -lowpass 17 -b 128

Enjoy
nenad023


NOTE FROM nenad023

After almost two years i decided to ripp DVD to avi on 700mb. I will leave you to decide would you 
like to see my releases: avi 700mb, mkv, mp4... It is all on you. 
But first, I would like to remind you to all great people who was and who are still the greatest, 
the kings of ripping: aXXo, noir, fxg, stg, and many more...
I tryed to learn from the best. I hope I succeeded. 
I would like to thank them all and specially I would like to thank all of you for giving me 
great support through all this years.
best regards
nenad023